<?xml version="1.0" encoding="UTF-8"?>
<svg width="128" height="128" viewBox="0 0 128 128" xmlns="http://www.w3.org/2000/svg">
  <!-- Orange background with rounded corners -->
  <rect width="128" height="128" rx="20" ry="20" fill="#FF8C00"/>
  
  <!-- White circle -->
  <circle cx="64" cy="64" r="48" fill="#FFFFFF" stroke="#0C86C6" stroke-width="4"/>
  
  <!-- Blue phone icon -->
  <path d="M50 42 C46 42 42 46 42 50 C42 74 54 86 78 86 C82 86 86 82 86 78 L86 72 C86 70 84 68 82 68 L74 68 C72 68 70 70 70 72 L70 74 C66 74 58 66 58 54 L60 54 C62 54 64 52 64 50 L64 42 C64 40 62 38 60 38 L50 38 C48 38 46 40 50 42 Z" fill="#0C86C6" transform="rotate(-30 64 64)"/>
</svg>
